<svg width="195" height="71" viewBox="0 0 195 71" fill="none" xmlns="http://www.w3.org/2000/svg">
<path d="M63.0144 54.7686H52.0704V68.8806H36.9024V54.7686H0.710375V44.3046L32.3904 1.68061H48.7104L19.3344 42.0966H37.3824V29.5206H52.0704V42.0966H63.0144V54.7686ZM96.4659 70.0326C90.8979 70.0326 85.9379 68.6566 81.5859 65.9046C77.2339 63.1526 73.8099 59.1846 71.3139 54.0006C68.8819 48.7526 67.6659 42.5126 67.6659 35.2806C67.6659 28.0486 68.8819 21.8406 71.3139 16.6566C73.8099 11.4086 77.2339 7.40861 81.5859 4.65661C85.9379 1.90461 90.8979 0.528614 96.4659 0.528614C102.034 0.528614 106.994 1.90461 111.346 4.65661C115.698 7.40861 119.09 11.4086 121.522 16.6566C124.018 21.8406 125.266 28.0486 125.266 35.2806C125.266 42.5126 124.018 48.7526 121.522 54.0006C119.09 59.1846 115.698 63.1526 111.346 65.9046C106.994 68.6566 102.034 70.0326 96.4659 70.0326ZM96.4659 56.8806C100.562 56.8806 103.762 55.1206 106.066 51.6006C108.434 48.0806 109.618 42.6406 109.618 35.2806C109.618 27.9206 108.434 22.4806 106.066 18.9606C103.762 15.4406 100.562 13.6806 96.4659 13.6806C92.4339 13.6806 89.2339 15.4406 86.8659 18.9606C84.5619 22.4806 83.4099 27.9206 83.4099 35.2806C83.4099 42.6406 84.5619 48.0806 86.8659 51.6006C89.2339 55.1206 92.4339 56.8806 96.4659 56.8806ZM194.358 54.7686H183.414V68.8806H168.246V54.7686H132.054V44.3046L163.734 1.68061H180.054L150.678 42.0966H168.726V29.5206H183.414V42.0966H194.358V54.7686Z" fill="#FF6060"/>
</svg>
